# xmcd CD database file
# Copyright (C) 1997 Ti Kan
# 
# Track frame offsets:
#     150
#     14745
#     27507
#     40437
#     53772
#     68030
#     80030
#     93652
#     106972
#     120725
#     133235
#     145560
#     158687
#     172427
#     185550
#     198875
# 
# Disc length: 2827 seconds
# 
# Revision: 1
# Processed by: cddbd v1.4b41PL1 Copyright (c) Steve Scherf et al.
# Submitted via: DiscPlay 4.0.3
# 
DISCID=eb0b0910
DTITLE=Blind Lemon Jefferson - One Dime Blues
DYEAR=1900
DGENRE=
TTITLE0=All I Want Is That Pure Religion
TTITLE1=Booster Blues
TTITLE2=Dry Southern Blues
TTITLE3=Black Horse Blues
TTITLE4=Corinna Blues
TTITLE5=Chock House Blues
TTITLE6=Wartime Blues
TTITLE7=Rabbit Foot Blues
TTITLE8=Black Snake Moan
TTITLE9=Rambler Blues
TTITLE10=How Long,How Long
TTITLE11=Matchbox Blues
TTITLE12=Hot Dogs
TTITLE13=He Arose From The Dead
TTITLE14=One Dime Blues
TTITLE15=Easy Rider Blues
EXTD=
EXTT0=
EXTT1=
EXTT2=
EXTT3=
EXTT4=
EXTT5=
EXTT6=
EXTT7=
EXTT8=
EXTT9=
EXTT10=
EXTT11=
EXTT12=
EXTT13=
EXTT14=
EXTT15=
PLAYORDER=
